<svg fill="none" xmlns="http://www.w3.org/2000/svg" viewBox="0 0 14 14">
    <path
        d="M10.927 2.565a.47.47 0 0 0-.622.24l-.113.245c-.123.265.008.575.266.71 1.244.65 2.08 1.857 2.08 3.24 0 1.386-.836 2.591-2.08 3.24-.258.135-.389.445-.266.71l.113.244a.47.47 0 0 0 .622.241C12.712 10.602 13.93 8.93 13.93 7c0-1.93-1.217-3.602-3.002-4.435ZM.5 3.874a.5.5 0 0 0-.5.5v5.249a.5.5 0 0 0 .5.5h2.094a.5.5 0 0 1 .334.128l3.898 3.5a.5.5 0 0 0 .834-.372V.62a.5.5 0 0 0-.834-.372L2.928 3.746a.5.5 0 0 1-.334.128H.5Z"
        fill="currentColor" />
</svg>