<svg fill="none" xmlns="http://www.w3.org/2000/svg" viewBox="0 0 15 15">
    <path stroke="currentColor" d="m.354.353 13.433 13.434" />
    <path fill-rule="evenodd" clip-rule="evenodd"
        d="M8.366 10.823v2.97a.5.5 0 0 1-.834.371l-3.898-3.5a.5.5 0 0 0-.334-.128H1.206a.5.5 0 0 1-.5-.5V4.787a.5.5 0 0 1 .5-.5h.624l6.536 6.536Zm2.646-7.604a.47.47 0 0 1 .622-.241c1.784.833 3 2.506 3 4.435 0 1.93-1.216 3.602-3 4.435a.451.451 0 0 1-.095.031l-.684-.684a.566.566 0 0 1 .31-.542c1.243-.649 2.079-1.854 2.08-3.24 0-1.383-.837-2.59-2.08-3.24-.26-.135-.39-.446-.267-.71l.114-.244ZM7.532.66a.5.5 0 0 1 .834.372v7.673L3.731 4.071 7.532.661Z"
        fill="currentColor" />
</svg>