<svg width="100" height="100" viewBox="0 0 100 100" fill="black" xmlns="http://www.w3.org/2000/svg">
    <rect width="100" height="100" fill="black" />
    <path fill-rule="evenodd" clip-rule="evenodd"
        d="M42.6232 18C42.7382 18.0001 42.8492 18.0637 42.9084 18.1621C42.9676 18.2641 42.9713 18.3902 42.9191 18.4922L27.8127 48.8838L27.9494 49.1123L47.6564 49.043L47.7502 38.4092C47.8028 32.3734 47.84 28.094 47.5207 25.5938C47.4961 25.4015 47.4686 25.22 47.4396 25.0488C47.4107 24.8775 47.3795 24.7167 47.3459 24.5664C47.3123 24.4163 47.2771 24.2765 47.2385 24.1475C47.2299 24.1333 47.2249 24.1157 47.2238 24.0977L47.2316 24.0459C47.2492 24.018 47.2814 24.0007 47.3195 24.001L53.7209 24.3096L61.2365 24.2061C61.6556 24.1922 62.0924 24.1965 62.5148 24.2002L63.6203 24.2227C63.8623 24.2307 64.1014 24.2439 64.3381 24.2559C64.4506 24.2615 64.5627 24.2649 64.674 24.2715C64.7485 24.2759 64.8227 24.2823 64.8967 24.2871C65.1692 24.3047 65.4382 24.3227 65.7033 24.3457C65.7868 24.3529 65.8696 24.3633 65.9523 24.3711C66.1963 24.394 66.4374 24.4168 66.675 24.4443C67.2656 24.5129 67.8365 24.5961 68.3879 24.6934C68.4424 24.703 68.4968 24.7127 68.551 24.7227C68.6239 24.736 68.6965 24.7498 68.7687 24.7637C68.8295 24.7753 68.8901 24.7868 68.9504 24.7988C69.0283 24.8144 69.1057 24.8305 69.1828 24.8467C69.2597 24.8628 69.3362 24.8788 69.4123 24.8955C69.5031 24.9154 69.5932 24.9362 69.6828 24.957C69.7183 24.9653 69.7539 24.9731 69.7892 24.9814C69.8343 24.9921 69.8792 25.0028 69.924 25.0137L70.1623 25.0732C70.1956 25.0818 70.2287 25.091 70.2619 25.0996C70.3263 25.1164 70.3905 25.1332 70.4543 25.1504C70.518 25.1676 70.5816 25.1845 70.6447 25.2021C70.7184 25.2228 70.7916 25.2443 70.8644 25.2656C70.9385 25.2873 71.012 25.3097 71.0851 25.332C71.1335 25.3468 71.1817 25.3619 71.2297 25.377C71.3113 25.4026 71.3923 25.4286 71.4728 25.4551C71.5258 25.4725 71.5785 25.49 71.631 25.5078C71.7054 25.533 71.7794 25.5581 71.8527 25.584C71.9021 25.6014 71.9512 25.619 72.0002 25.6367C72.071 25.6624 72.1413 25.6885 72.2111 25.7148C72.2772 25.7398 72.3431 25.7645 72.4084 25.79C72.4654 25.8124 72.5219 25.8356 72.5783 25.8584C72.6293 25.8791 72.6801 25.8999 72.7306 25.9209C72.8011 25.9502 72.8712 25.9797 72.9406 26.0098C72.9988 26.035 73.0569 26.0602 73.1144 26.0859C73.1729 26.1121 73.2306 26.1393 73.2883 26.166C73.3373 26.1887 73.3862 26.2113 73.4347 26.2344C73.5004 26.2657 73.5653 26.298 73.6301 26.3301C73.6831 26.3563 73.7359 26.3825 73.7883 26.4092C73.8348 26.4329 73.8809 26.4573 73.9269 26.4814C73.9909 26.515 74.0544 26.5487 74.1174 26.583C74.1758 26.6148 74.2336 26.6472 74.2912 26.6797C74.3277 26.7003 74.3644 26.7204 74.4006 26.7412C74.476 26.7847 74.5502 26.8294 74.6242 26.874C74.6593 26.8952 74.6949 26.9151 74.7297 26.9365C74.7907 26.9741 74.8503 27.0134 74.9103 27.0518C74.9523 27.0786 74.9948 27.1046 75.0363 27.1318C75.283 27.2938 75.5203 27.4631 75.7492 27.6387C75.8873 27.7446 76.0229 27.852 76.1545 27.9629C76.4936 28.2486 76.8104 28.5515 77.1066 28.8701C77.2144 28.986 77.319 29.1043 77.4211 29.2246C77.4741 29.287 77.5268 29.3495 77.5783 29.4131C77.6022 29.4427 77.625 29.4731 77.6486 29.5029C77.6925 29.5584 77.7367 29.6136 77.7795 29.6699C77.802 29.6996 77.8237 29.7299 77.8459 29.7598C77.8892 29.8181 77.9327 29.8763 77.9748 29.9355C77.997 29.9668 78.0183 29.9987 78.0402 30.0303C78.0855 30.0955 78.1302 30.1612 78.174 30.2275C78.1935 30.257 78.2125 30.2867 78.2316 30.3164C78.2691 30.3744 78.3066 30.4324 78.3429 30.4912C78.3691 30.5335 78.3945 30.5764 78.4201 30.6191C78.4556 30.6784 78.4911 30.7378 78.5256 30.7979C78.5451 30.8318 78.564 30.8661 78.5832 30.9004C78.6216 30.9692 78.6594 31.0385 78.6965 31.1084C78.7079 31.1299 78.7194 31.1513 78.7306 31.1729C78.7701 31.2484 78.809 31.3245 78.8469 31.4014C78.8688 31.446 78.8899 31.4911 78.9113 31.5361C78.9366 31.5893 78.9619 31.6425 78.9865 31.6963C79.008 31.7433 79.0291 31.7905 79.05 31.8379C79.0789 31.9035 79.1071 31.9696 79.1349 32.0361C79.1524 32.0779 79.1696 32.12 79.1867 32.1621C79.2073 32.213 79.2282 32.264 79.2482 32.3154C79.2744 32.3826 79.2993 32.4505 79.3244 32.5186C79.3429 32.5688 79.3612 32.6192 79.3791 32.6699C79.3951 32.7154 79.4114 32.7608 79.4269 32.8066C79.4496 32.8733 79.4717 32.9404 79.4933 33.0078C79.5115 33.0642 79.5296 33.1208 79.5471 33.1777C79.5634 33.2312 79.5792 33.2849 79.5949 33.3389C79.6102 33.3914 79.6251 33.4441 79.6398 33.4971C79.6609 33.5728 79.6815 33.6489 79.7013 33.7256C79.7117 33.7655 79.7216 33.8056 79.7316 33.8457C79.7515 33.9253 79.7706 34.0054 79.7892 34.0859C79.7997 34.1311 79.8105 34.1762 79.8205 34.2217C79.8312 34.27 79.8415 34.3185 79.8517 34.3672C79.867 34.44 79.8814 34.5133 79.8957 34.5869C79.9327 34.7776 79.966 34.971 79.9963 35.167C80.0251 35.3537 80.0516 35.5428 80.0744 35.7344C80.081 35.7902 80.0878 35.8461 80.0939 35.9023C80.102 35.9769 80.1102 36.0517 80.1174 36.127C80.1375 36.337 80.1522 36.5499 80.1652 36.7656C80.1931 37.2264 80.2066 37.6999 80.2023 38.1865C80.1541 43.7123 75.8459 48.6179 71.4787 50.7578C71.3378 50.8269 71.1967 50.8928 71.0558 50.9561L70.6037 51.1592L71.0812 51.3105C72.2068 51.6607 73.2651 52.0876 74.2492 52.583C74.8395 52.8802 75.4031 53.2021 75.9387 53.5469C76.2961 53.777 76.6408 54.0175 76.9728 54.2676C77.3046 54.5175 77.6234 54.7771 77.9289 55.0459C78.0817 55.1803 78.2311 55.3171 78.3771 55.4561C79.1073 56.1505 79.7535 56.9002 80.3078 57.6982C80.6405 58.1772 80.9397 58.6739 81.2053 59.1855C81.6476 60.0379 81.9951 60.9331 82.2404 61.8633C82.5348 62.9797 82.6825 64.1465 82.6721 65.3496L82.6613 65.8311C82.6503 66.1842 82.63 66.5318 82.6017 66.874C82.5607 67.3707 82.5011 67.8557 82.424 68.3291C82.4051 68.445 82.3855 68.5603 82.3644 68.6748C82.345 68.7805 82.3251 68.8857 82.3039 68.9902C82.2374 69.3175 82.1615 69.6387 82.0773 69.9541C81.9426 70.4587 81.7862 70.9481 81.6066 71.4219C81.5778 71.4979 81.5477 71.5732 81.5178 71.6484C81.4958 71.7036 81.4739 71.7587 81.4513 71.8135C81.4238 71.8803 81.3949 71.9465 81.3664 72.0127C81.3414 72.0708 81.3169 72.1289 81.2912 72.1865C81.2691 72.2359 81.2464 72.2849 81.2238 72.334C81.1873 72.4132 81.1503 72.492 81.1125 72.5703C81.0909 72.6151 81.0691 72.6597 81.0471 72.7041C81.0115 72.7757 80.9763 72.8472 80.9396 72.918C80.9098 72.9754 80.8784 73.0319 80.8478 73.0889C80.8128 73.1543 80.7774 73.2195 80.7414 73.2842C80.7125 73.3359 80.683 73.3872 80.6535 73.4385C80.6149 73.5056 80.5759 73.5723 80.5363 73.6387C80.5058 73.6897 80.4747 73.7404 80.4435 73.791C80.4089 73.8472 80.3744 73.9034 80.339 73.959C80.3014 74.0182 80.2634 74.0772 80.2248 74.1357C80.1897 74.1891 80.1542 74.2421 80.1183 74.2949C80.0729 74.3619 80.0263 74.4281 79.9797 74.4941C79.9558 74.5279 79.9325 74.5621 79.9084 74.5957C79.8579 74.6658 79.8059 74.7346 79.7541 74.8037C79.7195 74.8498 79.6848 74.8958 79.6496 74.9414C79.6104 74.9923 79.5714 75.0434 79.5314 75.0938C79.487 75.1498 79.442 75.2054 79.3967 75.2607C79.3669 75.297 79.337 75.3332 79.3068 75.3691C79.2527 75.4337 79.1981 75.4979 79.1428 75.5615C79.0951 75.6163 79.0468 75.6706 78.9982 75.7246C78.9559 75.7717 78.9134 75.8187 78.8703 75.8652C78.8286 75.9103 78.7857 75.9544 78.7433 75.999C78.697 76.0477 78.6508 76.0965 78.6037 76.1445C78.5448 76.2047 78.4851 76.2641 78.425 76.3232C78.3891 76.3586 78.3529 76.3937 78.3166 76.4287C78.2654 76.478 78.2134 76.5266 78.1613 76.5752C78.1115 76.6217 78.0615 76.668 78.0109 76.7139C77.9616 76.7586 77.9125 76.8036 77.8625 76.8477C77.814 76.8903 77.7651 76.9325 77.716 76.9746C77.6627 77.0202 77.6089 77.0654 77.5549 77.1104C77.5027 77.1538 77.4506 77.1975 77.3976 77.2402C77.3479 77.2804 77.2976 77.3198 77.2472 77.3594C77.1822 77.4105 77.1161 77.4605 77.05 77.5107C77.0056 77.5444 76.9611 77.5781 76.9162 77.6113C76.8596 77.6533 76.8027 77.695 76.7453 77.7363C76.6851 77.7796 76.6247 77.8227 76.5637 77.8652C76.5078 77.9042 76.4513 77.9422 76.3947 77.9805C76.3387 78.0184 76.2825 78.0564 76.2258 78.0938C76.1646 78.134 76.1032 78.1743 76.0412 78.2139C75.9884 78.2476 75.9354 78.2813 75.882 78.3145C75.82 78.353 75.7573 78.3908 75.6945 78.4287C75.6218 78.4725 75.5485 78.5157 75.4748 78.5586C75.4324 78.5833 75.3896 78.6075 75.3469 78.6318C75.2743 78.6731 75.2016 78.7145 75.1281 78.7549C75.0705 78.7865 75.0125 78.8175 74.9543 78.8486C74.8905 78.8827 74.8264 78.9167 74.7619 78.9502C74.6756 78.9949 74.5888 79.0394 74.5012 79.083C74.4661 79.1004 74.4309 79.1175 74.3957 79.1348C74.3164 79.1735 74.2368 79.2122 74.1564 79.25C74.091 79.2808 74.0253 79.3116 73.9592 79.3418C73.8926 79.3721 73.8252 79.401 73.758 79.4307C73.6985 79.4569 73.6393 79.484 73.5793 79.5098C73.4984 79.5445 73.417 79.5785 73.3351 79.6123C73.269 79.6396 73.2027 79.6667 73.1359 79.6934C73.0789 79.7161 73.0215 79.7384 72.964 79.7607C72.8844 79.7917 72.8044 79.8224 72.7238 79.8525C72.626 79.8891 72.5271 79.9237 72.4279 79.959C72.3876 79.9733 72.3473 79.9878 72.3068 80.002C72.2171 80.0333 72.1271 80.0644 72.0363 80.0947C71.9755 80.115 71.9149 80.1364 71.8537 80.1562C71.7758 80.1815 71.697 80.205 71.6183 80.2295C71.5369 80.2549 71.4555 80.2811 71.3732 80.3057C71.2884 80.331 71.203 80.3554 71.1174 80.3799C71.0677 80.3941 71.0179 80.408 70.9679 80.4219C70.8615 80.4515 70.7544 80.4804 70.6467 80.5088C70.5869 80.5245 70.5271 80.5403 70.467 80.5557C70.1995 80.6238 69.928 80.6877 69.6525 80.748C69.6079 80.7578 69.5635 80.7688 69.5187 80.7783C69.4381 80.7955 69.3569 80.8116 69.2756 80.8281C69.1755 80.8485 69.0749 80.8684 68.9738 80.8877C68.9416 80.8939 68.9094 80.9002 68.8771 80.9062C68.7645 80.9274 68.6512 80.9479 68.5373 80.9678C68.4111 80.9898 68.2841 81.0108 68.1564 81.0312C68.1086 81.0389 68.0609 81.0473 68.0129 81.0547C67.9196 81.0691 67.8257 81.0821 67.7316 81.0957C67.6434 81.1085 67.5549 81.1208 67.466 81.1328C66.8303 81.2189 66.1767 81.2871 65.5051 81.3359C65.4472 81.3401 65.3893 81.3447 65.3312 81.3486C65.1898 81.3582 65.0475 81.3661 64.9045 81.374C64.8645 81.3762 64.8245 81.3788 64.7844 81.3809C64.6609 81.3873 64.5369 81.3923 64.4123 81.3975C64.3444 81.4003 64.2764 81.4038 64.2082 81.4062C63.8527 81.419 63.4927 81.4269 63.1281 81.4297H62.465L61.5588 81.4131C61.272 81.4044 60.9982 81.3923 60.7336 81.376L53.2228 80.9736L46.8097 81.1709L46.7922 81.167C46.7715 81.1637 46.7588 81.1566 46.7502 81.1475C46.7417 81.1388 46.7365 81.1301 46.7336 81.124C46.7294 81.1161 46.7265 81.1074 46.7248 81.0986C46.7198 81.0723 46.7259 81.0433 46.7414 81.0225C46.799 80.8555 46.8491 80.6642 46.8976 80.4502C47.0963 79.5747 47.2249 78.3091 47.3088 76.6777C47.3548 75.7824 47.3879 74.777 47.4133 73.666C47.4583 71.6915 47.4793 69.3831 47.5021 66.7646L47.6213 53.0732L20.3332 53.0674C20.2181 53.0674 20.1063 53.0038 20.0471 52.9053C19.9881 52.8069 19.9843 52.677 20.0363 52.5752L35.0138 22.7393L34.881 22.5107H30.0099C24.909 22.5107 23.3988 22.7045 22.3039 23.4854C21.8924 23.788 21.533 24.1157 21.2053 25.1045C21.1599 25.2451 21.0342 25.3397 20.8879 25.3398H20.5461C20.3647 25.3398 20.2111 25.1849 20.2111 25.002V18.3379C20.2111 18.1549 20.3647 18 20.5461 18H42.6232ZM53.382 65.1045L53.7844 76.998L60.7746 77.0596L61.7668 77.0586C69.145 76.9735 73.2489 75.1433 74.9406 70.9023C75.0574 70.6094 75.1639 70.3054 75.258 69.9893C75.263 69.9724 75.2677 69.9554 75.2726 69.9385C75.3796 69.573 75.4713 69.1919 75.549 68.7949C75.6496 68.2809 75.7225 67.74 75.7756 67.1719C75.8084 66.8208 75.8365 66.4591 75.8517 66.0869L75.8713 65.3018C75.8769 64.6528 75.8306 64.024 75.7346 63.418C75.6065 62.6097 75.3899 61.8411 75.09 61.1162C74.8652 60.5729 74.5938 60.054 74.2775 59.5615C74.2248 59.4794 74.1706 59.3981 74.1154 59.3174C73.9497 59.0753 73.7728 58.8399 73.5851 58.6113C73.3976 58.3828 73.1993 58.1609 72.9904 57.9463C72.5033 57.4459 71.9587 56.9842 71.3605 56.5635C71.2749 56.5032 71.1886 56.4433 71.1008 56.3848C70.9255 56.2679 70.7456 56.1549 70.5617 56.0449C69.1816 55.2195 67.5609 54.5887 65.7336 54.1787C64.2717 53.8508 62.6777 53.6642 60.9689 53.6328L53.4826 53.5674L53.382 65.1045ZM53.5246 49.1416L61.0148 49.1191C65.3659 49.1015 68.7686 47.865 70.9709 45.6309C71.198 45.4005 71.4122 45.1596 71.6135 44.9082C73.0334 43.1349 73.8045 40.8457 73.8283 38.124C73.8294 37.999 73.8293 37.8757 73.8273 37.7539C73.8245 37.5821 73.8175 37.4135 73.8088 37.248C73.7407 35.9619 73.4948 34.865 73.1047 33.9297C72.9403 33.5357 72.7501 33.1707 72.5373 32.832C70.2969 29.267 65.5145 28.6559 61.1935 28.6182L53.7043 28.5527L53.5246 49.1416Z"
        fill="white" />
</svg>